<?xml version="1.0" encoding="UTF-8"?>
<svg id="Layer_1" xmlns="http://www.w3.org/2000/svg" xmlns:xlink="http://www.w3.org/1999/xlink" version="1.1" viewBox="0 0 792 612">
  <!-- Generator: Adobe Illustrator 30.3.0, SVG Export Plug-In . SVG Version: 2.1.3 Build 182)  -->
  <defs>
    <style>
      .st0 {
        fill: #f99e1f;
      }

      .st1 {
        fill: url(#linear-gradient);
      }

      .st2 {
        fill: #727d84;
      }

      .st3 {
        fill: #231f20;
        font-family: MyriadPro-Regular, 'Myriad Pro';
        font-size: 23.75px;
      }

      .st4 {
        fill: #f68b21;
      }

      .st5 {
        stroke: #857f7f;
        stroke-width: 6px;
      }

      .st5, .st6 {
        fill: none;
      }

      .st6 {
        stroke: #727d84;
        stroke-width: 5px;
      }
    </style>
    <linearGradient id="linear-gradient" x1="462.08" y1="-51.21" x2="515.7" y2="-51.21" gradientTransform="translate(398.68 836.08) rotate(-90.69) scale(1.23)" gradientUnits="userSpaceOnUse">
      <stop offset="0" stop-color="#fff"/>
      <stop offset="1" stop-color="#0a5ba9"/>
    </linearGradient>
  </defs>
  <g>
    <path class="st2" d="M355.7,281.34c2.47-.5,6-.78,9.36-.78,5.21,0,8.58.95,10.93,3.08,1.91,1.68,2.97,4.26,2.97,7.17,0,4.99-3.14,8.3-7.12,9.64v.17c2.91,1.01,4.65,3.7,5.55,7.62,1.23,5.27,2.13,8.91,2.91,10.37h-5.04c-.62-1.12-1.46-4.32-2.52-9.02-1.12-5.21-3.14-7.17-7.57-7.34h-4.6v16.37h-4.88v-37.27ZM360.58,298.55h4.99c5.21,0,8.52-2.86,8.52-7.17,0-4.88-3.53-7.01-8.69-7.06-2.35,0-4.04.22-4.82.45v13.79Z"/>
    <path class="st2" d="M392.73,280.84v37.78h-4.88v-37.78h4.88Z"/>
    <path class="st2" d="M443.76,284.98h-11.49v-4.15h27.97v4.15h-10.55v33.63h-5.93v-33.63Z"/>
  </g>
  <ellipse class="st6" cx="416.68" cy="300.15" rx="17.15" ry="17.89"/>
  <g>
    <path class="st4" d="M171.27,280.91h4.01l12.24,28.53,12.41-28.53h4.01l-16.04,36.86h-.81l-15.82-36.86Z"/>
    <path class="st4" d="M322.27,317.78h-4.01l-12.24-28.53-12.41,28.53h-4.01l16.04-36.86h.81l15.82,36.86Z"/>
    <path class="st4" d="M212.95,280.91h3.69v36.86h-3.69v-36.86Z"/>
    <path class="st4" d="M226.27,310.87l3.13-1.88c2.2,4.07,4.75,6.1,7.63,6.1,1.24,0,2.39-.29,3.48-.86,1.09-.57,1.91-1.34,2.48-2.31.57-.96.85-1.99.85-3.07,0-1.23-.42-2.44-1.25-3.62-1.15-1.64-3.25-3.61-6.3-5.91-3.07-2.32-4.98-4-5.72-5.04-1.3-1.74-1.95-3.61-1.95-5.63,0-1.6.38-3.06,1.15-4.38.77-1.32,1.85-2.36,3.24-3.12,1.39-.76,2.9-1.14,4.54-1.14,1.73,0,3.35.43,4.86,1.29s3.1,2.44,4.79,4.75l-3.01,2.28c-1.38-1.83-2.56-3.04-3.53-3.63-.97-.58-2.03-.88-3.18-.88-1.48,0-2.69.45-3.63,1.35-.94.9-1.41,2.01-1.41,3.33,0,.8.17,1.57.5,2.32.33.75.94,1.57,1.82,2.45.48.47,2.06,1.69,4.75,3.68,3.18,2.36,5.36,4.45,6.54,6.29,1.18,1.84,1.77,3.68,1.77,5.53,0,2.67-1.01,4.99-3.04,6.96-2.03,1.97-4.49,2.95-7.39,2.95-2.23,0-4.26-.6-6.08-1.8-1.82-1.2-3.49-3.2-5.03-6.02Z"/>
    <path class="st4" d="M258.29,280.91h3.69v22.25c0,2.64.05,4.28.15,4.94.18,1.45.61,2.67,1.28,3.64.67.98,1.7,1.8,3.08,2.46,1.39.66,2.78.99,4.19.99,1.22,0,2.39-.26,3.51-.78,1.12-.52,2.06-1.23,2.81-2.15.75-.92,1.3-2.03,1.65-3.33.25-.93.38-2.86.38-5.76v-22.25h3.69v22.24c0,3.29-.32,5.95-.96,7.98-.64,2.03-1.93,3.8-3.86,5.3-1.93,1.5-4.27,2.26-7.01,2.26-2.98,0-5.52-.71-7.65-2.13-2.12-1.42-3.54-3.3-4.26-5.63-.45-1.44-.68-4.02-.68-7.77v-22.24Z"/>
    <path class="st4" d="M329.7,280.91h3.69v33.3h14.19v3.56h-17.88v-36.86Z"/>
  </g>
  <g>
    <path class="st0" d="M324.43,264.16c-23.51-15.88-27.89-33.53-16.33-51.6-9.92,15.5,23.41,22.73,16.33,51.6"/>
    <path class="st1" d="M323.34,266.93c18.62-26.36,23.46-42.68-1.76-66.13,18.07,16.8-16.03,34.4,1.76,66.13"/>
  </g>
  <path class="st5" d="M355.29,231.05c0,19.02-14.79,34.44-33.02,34.44s-33.02-15.42-33.02-34.44,14.78-34.44,33.02-34.44,33.02,15.42,33.02,34.44Z"/>
  <text class="st3" transform="translate(457.24 327.36)"><tspan x="0" y="0">®</tspan></text>
</svg>